#!OML:ASF F:\VICON\USERDATA\INSTALL\rory3\rory3.ASF
:FULLY-SPECIFIED
:DEGREES
263
root 12.9305 17.9172 9.84127 -4.32386 -37.7415 4.13704
lowerback 8.79483 1.6976 1.31863
upperback -0.4871 2.39441 -0.0597857
thorax -5.38565 1.14144 -1.12056
lowerneck -18.3877 -7.35814 -12.6906
upperneck 29.2442 -10.1724 10.2192
head 14.3443 -4.58769 4.42803
rclavicle -4.17261e-014 7.95139e-015
rhumerus -33.9569 -2.54749 -88.7189
rradius 42.786
rwrist -0.0997287
rhand -14.8847 10.7443
rfingers 7.12502
rthumb 11.2759 -18.9326
lclavicle -4.17261e-014 7.95139e-015
lhumerus -38.8646 10.4765 80.9818
lradius 24.8653
lwrist -11.3972
lhand -15.2302 29.5898
lfingers 7.12502
lthumb 10.9427 59.2847
rfemur -4.35058 -1.17661 31.1921
rtibia 20.0782
rfoot -8.83552 6.56976
rtoes 28.6948
lfemur -12.4727 -5.3601 -15.2367
ltibia 56.2783
lfoot -2.13713 -0.426291
ltoes -11.3973
264
root 12.8967 17.9109 9.92173 -4.4377 -39.7148 4.41071
lowerback 8.7873 1.73129 1.24993
upperback -0.500643 2.42706 -0.151651
thorax -5.39352 1.15803 -1.18193
lowerneck -18.7004 -7.37528 -12.1936
upperneck 29.5378 -10.126 9.51534
head 14.4517 -4.59593 4.05913
rclavicle 1.86795e-014 -9.54166e-015
rhumerus -33.7579 -1.79756 -89.302
rradius 43.1515
rwrist -0.32546
rhand -14.9149 10.7915
rfingers 7.12502
rthumb 11.2469 -18.8871
lclavicle 1.86795e-014 -9.54166e-015
lhumerus -39.0619 10.4774 80.8958
lradius 24.7536
lwrist -11.3517
lhand -15.2125 29.809
lfingers 7.12502
lthumb 10.9598 59.5029
rfemur -4.16433 -1.01278 30.9943
rtibia 20.4315
rfoot -9.13516 7.90676
rtoes 28.4728
lfemur -12.725 -5.34496 -15.4121
ltibia 55.6233
lfoot -2.74016 0.62708
ltoes -13.6874
265
root 12.8653 17.909 9.99536 -4.38065 -41.5965 4.48504
lowerback 8.88991 1.78645 1.26221
upperback -0.541712 2.50352 -0.151793
thorax -5.49198 1.19392 -1.20381
lowerneck -19.0139 -7.35862 -11.8364
upperneck 29.7398 -10.0622 9.07433
head 14.5456 -4.5787 3.8249
rclavicle 1.0548e-013 -4.77083e-015
rhumerus -33.5689 -1.14626 -89.6883
rradius 43.5289
rwrist -0.535246
rhand -14.8933 10.8897
rfingers 7.12502
rthumb 11.2676 -18.7877
lclavicle 1.0548e-013 -4.77083e-015
lhumerus -39.1794 10.3759 80.964
lradius 24.5917
lwrist -11.4807
lhand -15.6092 29.4055
lfingers 7.12502
lthumb 10.5771 59.1194
rfemur -4.10993 -0.781637 30.9731
rtibia 20.8774
rfoot -9.49781 9.06337
rtoes 28.1983
lfemur -13.1181 -5.55628 -15.3451
ltibia 54.8889
lfoot -3.15494 1.4144
ltoes -13.4402
266
root 12.8338 17.9083 10.0661 -4.3121 -43.3934 4.63236
lowerback 8.87094 1.83126 1.24886
upperback -0.526285 2.55879 -0.195581
thorax -5.46211 1.22128 -1.24811
lowerneck -19.1476 -7.37009 -11.7887
upperneck 29.6667 -10.1 9.13105
head 14.5482 -4.58012 3.82723
rclavicle 3.87133e-014 6.36111e-015
rhumerus -33.1757 -0.703228 -90.0592
rradius 43.731
rwrist -0.449223
rhand -14.9229 11.0643
rfingers 7.12502
rthumb 11.2391 -18.6146
lclavicle 3.87133e-014 6.36111e-015
lhumerus -39.1241 10.0565 81.1334
lradius 24.5163
lwrist -11.7367
lhand -15.7683 28.8902
lfingers 7.12502
lthumb 10.4237 58.6118
rfemur -4.09736 -0.214832 30.8994
rtibia 21.27
rfoot -9.81485 9.76988
rtoes 28.9883
lfemur -13.622 -5.76749 -15.2931
ltibia 54.1065
lfoot -3.69451 2.02371
ltoes -12.8272
267
root 12.8022 17.9053 10.1364 -4.42841 -45.2133 4.95691
lowerback 8.82731 1.87918 1.27484
upperback -0.451243 2.61424 -0.36918
thorax -5.34784 1.24708 -1.44696
lowerneck -19.0593 -7.4734 -11.9604
upperneck 29.3482 -10.2978 9.47243
head 14.4515 -4.64431 3.95082
rclavicle 5.03049e-014 -5.56597e-015
rhumerus -32.6409 -0.301699 -90.5242
rradius 43.7545
rwrist -0.267653
rhand -14.9496 11.1479
rfingers 7.12502
rthumb 11.2134 -18.5325
lclavicle 5.03049e-014 -5.56597e-015
lhumerus -39.0835 9.6732 81.1778
lradius 24.708
lwrist -12.0829
lhand -15.6893 28.6028
lfingers 7.12502
lthumb 10.4999 58.3206
rfemur -4.02883 0.303552 30.7055
rtibia 21.6327
rfoot -10.0472 10.381
rtoes 28.9669
lfemur -14.0661 -5.95875 -15.3894
ltibia 53.3118
lfoot -4.25036 2.55775
ltoes -12.4907
268
root 12.7705 17.9032 10.2048 -4.49707 -47.0042 5.13169
lowerback 8.97003 1.87981 1.28222
upperback -0.478467 2.61692 -0.381902
thorax -5.45596 1.24629 -1.47117
lowerneck -18.9635 -7.51619 -12.33
upperneck 29.2448 -10.3443 9.75843
head 14.438 -4.67551 4.12185
rclavicle 9.42364e-014 3.97569e-016
rhumerus -32.3512 0.382477 -90.8302
rradius 43.8276
rwrist -0.252315
rhand -14.7691 11.0829
rfingers 7.12502
rthumb 11.3874 -18.5879
lclavicle 9.42364e-014 3.97569e-016
lhumerus -39.524 9.88166 81.0746
lradius 25.2661
lwrist -12.7255
lhand -15.6576 28.4351
lfingers 7.12502
lthumb 10.5304 58.1514
rfemur -3.92325 0.580114 30.6402
rtibia 22.0086
rfoot -10.3177 10.9482
rtoes 28.1834
lfemur -14.4846 -6.30863 -15.3815
ltibia 52.5084
lfoot -4.84073 2.95921
ltoes -12.9949
